<?xml version="1.0" encoding="UTF-8" standalone="no"?>
<svg
   xmlns:dc="http://purl.org/dc/elements/1.1/"
   xmlns:cc="http://creativecommons.org/ns#"
   xmlns:rdf="http://www.w3.org/1999/02/22-rdf-syntax-ns#"
   xmlns:svg="http://www.w3.org/2000/svg"
   xmlns="http://www.w3.org/2000/svg"
   xmlns:sodipodi="http://sodipodi.sourceforge.net/DTD/sodipodi-0.dtd"
   xmlns:inkscape="http://www.inkscape.org/namespaces/inkscape"
   width="1000"
   height="250"
   viewBox="0 0 264.58333 66.145835"
   version="1.1"
   id="svg8"
   inkscape:version="1.0.1 (0767f8302a, 2020-10-17)"
   sodipodi:docname="main.svg">
  <defs
     id="defs2" />
  <sodipodi:namedview
     id="base"
     pagecolor="#666666"
     bordercolor="#000000"
     borderopacity="1"
     inkscape:pageopacity="1"
     inkscape:pageshadow="2"
     inkscape:zoom="0.49497475"
     inkscape:cx="526.41292"
     inkscape:cy="81.837953"
     inkscape:document-units="px"
     inkscape:current-layer="layer1"
     inkscape:document-rotation="0"
     showgrid="false"
     units="px"
     borderlayer="true"
     inkscape:showpageshadow="false"
     inkscape:window-width="1366"
     inkscape:window-height="704"
     inkscape:window-x="0"
     inkscape:window-y="0"
     inkscape:window-maximized="1" />
  <metadata
     id="metadata5">
    <rdf:RDF>
      <cc:Work
         rdf:about="">
        <dc:format>image/svg+xml</dc:format>
        <dc:type
           rdf:resource="http://purl.org/dc/dcmitype/StillImage" />
        <dc:title />
      </cc:Work>
    </rdf:RDF>
  </metadata>
  <g
     inkscape:label="Layer 1"
     inkscape:groupmode="layer"
     id="layer1"
     transform="translate(-1.027236e-4,-104.20716)">
    <g
       aria-label="STEM Guy"
       id="text9"
       style="font-size:59.4381px;line-height:1.25;font-family:Sriracha;-inkscape-font-specification:Sriracha;fill:#e6f2ff;stroke-width:1.48595;fill-opacity:1"
       transform="translate(1.038618e-4,4.9884119)">
      <path
         d="m 28.411514,113.53895 q -0.29719,-0.95101 -2.318086,-1.66427 -1.961457,-0.7727 -5.171114,-0.7727 -3.506848,0 -5.468306,1.96146 -1.961457,1.96146 -1.961457,4.93336 0,1.84258 1.307638,2.85303 1.367077,0.95101 4.160667,2.13977 l 2.139772,0.89157 1.783143,0.83214 q 3.209657,1.42651 5.052238,2.61527 1.902019,1.12933 3.209658,3.15022 1.307638,2.0209 1.307638,5.17112 0,3.38797 -2.258648,5.88437 -2.19921,2.43696 -6.181562,3.68516 -3.982353,1.30764 -9.272344,1.30764 -3.922914,0 -7.370324,-1.2482 -3.3879716,-1.18876 -5.408867,-3.03134 -1.9614572764,-1.84258 -1.9614572764,-3.62573 0,-1.7237 1.4859524764,-2.79359 1.4859525,-1.12932 4.220105,-1.54539 0.2971905,1.72371 2.0208954,3.09078 1.7237048,1.36708 3.9823524,2.19921 2.318086,0.7727 4.041791,0.7727 3.150219,0 5.587181,-1.2482 2.4964,-1.2482 2.4964,-3.44741 0,-1.84258 -1.783143,-3.03134 -1.723704,-1.2482 -5.230552,-2.67472 l -3.15022,-1.42651 q -3.863476,-1.90202 -6.1221237,-4.27955 -2.2586478,-2.37752 -2.2586478,-6.30044 0,-4.33898 2.4369621,-7.01369 2.4369624,-2.73415 5.8843714,-3.92292 3.506848,-1.18876 6.835382,-1.18876 5.289991,0 8.677962,1.36708 3.44741,1.36708 4.9928,3.44741 1.545391,2.08033 1.545391,4.27954 0,1.2482 -0.653819,3.03134 -0.594381,1.78315 -1.842581,3.09079 -1.188762,1.30763 -2.912467,1.30763 -2.971905,0 -2.971905,-3.09078 0.118876,-0.95101 0.534943,-3.09078 0.416067,-2.19921 0.594381,-2.61527 z"
         style="fill:#e6f2ff;stroke-width:1.48595;fill-opacity:1"
         id="path11" />
      <path
         d="m 53.132192,140.99935 q -0.475505,2.08033 -1.485953,3.20965 -0.951009,1.12933 -3.150219,1.12933 -1.842581,0 -2.734152,-0.59438 -0.832134,-0.65382 -0.832134,-2.13977 0,-0.65382 0.178314,-1.2482 l 7.132572,-28.47085 q -0.05944,0 -3.863476,0.41606 -4.576734,0.35663 -5.706058,0.59438 -1.188762,-0.41606 -1.842581,-1.2482 -0.594381,-0.89157 -0.594381,-2.08033 0,-0.95101 0.653819,-1.78314 0.713258,-0.89157 1.664267,-1.30764 4.755048,-0.95101 20.387268,-1.66427 4.338981,-0.17831 5.94381,-0.35663 0.95101,0.41607 1.604829,1.30764 0.713257,0.83214 0.713257,1.78315 0,1.06988 -1.069886,2.08033 -1.069886,1.01045 -2.436962,1.42651 l -7.786391,0.29719 z"
         style="fill:#e6f2ff;stroke-width:1.48595;fill-opacity:1"
         id="path13" />
      <path
         d="m 102.24292,104.68267 q 2.13977,1.12932 2.13977,2.85303 0,1.06988 -1.18876,2.02089 -1.12932,0.89157 -2.55584,1.2482 l -2.615276,0.17832 q -1.783142,0.11887 -4.814486,0.35663 -3.031343,0.17831 -7.132571,0.53494 l -2.674715,10.63942 q 3.7446,-0.59438 6.181562,-0.95101 2.496401,-0.35663 5.527744,-0.59438 2.318085,1.01045 2.318085,2.73415 0,1.06989 -1.069885,2.08033 -1.069886,1.01045 -2.436962,1.42652 l -3.387972,0.35663 q -5.408867,0.59438 -8.677962,1.18876 -0.713258,3.26909 -2.020896,8.26189 l -0.475505,1.84259 q 7.905268,-1.48596 15.275592,-2.08034 2.318086,1.01045 2.318086,2.73415 0,1.06989 -1.069886,2.08034 -1.069886,1.01045 -2.436962,1.42651 -11.293239,1.30764 -15.929411,2.19921 -0.534943,0.35663 -2.318086,0.35663 -1.664266,0 -2.971904,-1.54539 -1.248201,-1.54539 -1.248201,-3.20966 0,-0.65382 0.178315,-1.2482 l 6.775943,-26.80658 h -0.178314 q -0.05944,-0.65382 -0.832134,-1.60483 -0.05944,-0.11887 -0.475504,-0.71326 -0.416067,-0.65381 -0.416067,-1.2482 0.118876,-1.7237 2.258648,-2.73415 4.457857,-0.59438 12.482,-1.12932 8.024144,-0.59438 11.471554,-0.65382 z"
         style="fill:#e6f2ff;stroke-width:1.48595;fill-opacity:1"
         id="path15" />
      <path
         d="m 142.64226,104.20716 q 2.73415,0 4.16066,0.7727 1.42652,0.71326 1.42652,3.03134 0,0.29719 -0.11888,1.2482 -1.2482,8.08358 -5.40887,25.7367 l -1.48595,6.59763 q -0.29719,1.36707 -0.89157,2.31808 -0.59438,0.95101 -1.66427,0.95101 -2.61527,0 -3.98235,-0.65382 -1.30764,-0.71325 -1.30764,-2.31808 0,-0.23775 0.29719,-1.96146 1.90202,-10.04504 4.27955,-21.15996 l -10.34223,15.4539 q -0.95101,1.18877 -2.79359,1.18877 -3.62573,0 -4.16067,-1.78315 -0.59438,-1.96145 -2.25865,-8.38077 -0.59438,-2.13977 -1.18876,-4.33898 -0.59438,-2.25865 -1.18876,-4.45786 -1.84258,5.70606 -2.79359,12.83863 -0.89157,7.07314 -1.01045,13.43301 -0.0594,1.66427 -1.01045,2.25865 -0.95101,0.65382 -3.44741,0.65382 -1.84258,0 -2.73415,-0.65382 -0.89157,-0.59438 -0.89157,-2.08033 0,-3.68517 1.18876,-12.89807 1.18876,-9.27234 3.80404,-17.05874 2.67471,-7.78639 6.77594,-7.78639 1.60483,0 2.85303,0.35663 1.2482,0.35663 1.36708,1.06989 l 5.64662,20.50614 q 6.06268,-9.74785 9.39122,-14.62177 3.32853,-4.87392 4.87392,-6.53819 1.60483,-1.72371 2.61528,-1.72371 z"
         style="fill:#e6f2ff;stroke-width:1.48595;fill-opacity:1"
         id="path17" />
      <path
         d="m 193.60206,123.16792 q 2.43696,0 3.56629,0.89157 1.18876,0.83213 1.48595,2.08033 0.29719,1.18876 0.29719,3.09078 0,4.9928 -2.73415,8.85628 -2.73416,3.80404 -7.13257,5.94381 -4.39842,2.08033 -9.33179,2.08033 -7.13257,0 -10.4611,-3.98235 -3.32854,-3.98235 -3.32854,-9.74785 0,-6.83538 3.62573,-13.01694 3.68516,-6.241 9.03459,-9.9856 5.40887,-3.80404 10.16391,-3.80404 6.65707,0 9.62898,2.67471 2.9719,2.61528 2.9719,7.66752 0,1.78314 -1.36707,3.03134 -1.30764,1.2482 -3.56629,1.2482 -1.78314,0 -2.43696,-0.95101 -0.59438,-0.95101 -0.59438,-2.43696 l 0.0594,-1.90202 q 0,-1.06988 -1.18876,-2.08033 -1.18876,-1.01045 -2.19921,-1.01045 -3.32853,0 -7.31088,3.03134 -3.98236,2.97191 -6.71651,8.08358 -2.73415,5.05224 -2.73415,10.99605 0,2.73416 2.13977,4.45786 2.13977,1.72371 5.40887,1.72371 2.31808,0 4.87392,-1.36708 2.55584,-1.42652 4.27954,-3.80404 1.78315,-2.43696 1.78315,-5.17111 -0.83214,0.11887 -2.43696,0.53494 -2.31809,0.59438 -3.98236,0.89157 -1.60483,0.29719 -3.20965,0.29719 -1.90202,0 -2.85303,-0.4755 -0.89157,-0.53495 -0.89157,-1.84258 0,-0.89158 0.41606,-2.08034 0.47551,-1.18876 1.12933,-1.7237 2.9719,-0.7727 6.83538,-1.48596 3.92291,-0.71325 6.77594,-0.71325 z"
         style="fill:#e6f2ff;stroke-width:1.48595;fill-opacity:1"
         id="path19" />
      <path
         d="m 226.83075,144.68451 q -0.23775,1.01045 -1.06988,1.36708 -0.83214,0.41606 -2.19921,0.41606 -4.10123,0 -4.10123,-1.84258 l 0.35663,-2.25865 q -1.66427,1.2482 -3.92292,2.4964 -2.25865,1.2482 -3.7446,1.2482 -8.79684,0 -8.79684,-5.76549 0,-9.80729 5.88438,-21.27884 0.71325,-1.36708 1.48595,-1.96146 0.83213,-0.59438 2.79359,-0.59438 2.08033,0 3.09078,0.59438 1.06989,0.53494 1.06989,1.30764 0,0.17831 -0.65382,1.06989 -0.65382,0.77269 -1.12933,1.54539 -5.58718,9.33178 -5.58718,18.18805 0,0.7727 0.59438,1.36708 0.59438,0.59438 1.06989,0.59438 1.30764,0 4.39842,-1.2482 3.15022,-1.2482 4.81448,-2.55584 l 1.18876,-4.81448 q 2.13978,-8.61853 2.67472,-10.57998 0.65382,-2.37753 1.66427,-3.86348 1.06988,-1.54539 3.32853,-1.54539 3.15022,0 3.15022,1.90202 0,0.29719 -0.17832,0.77269 -0.11887,0.41607 -0.17831,0.71326 l -2.37752,9.62897 q -2.85303,11.47156 -3.62573,15.09728 z"
         style="fill:#e6f2ff;stroke-width:1.48595;fill-opacity:1"
         id="path21" />
      <path
         d="m 251.56629,142.36642 q -2.0209,1.90202 -3.92292,2.79359 -1.90202,0.95101 -4.27954,0.95101 -3.92291,0 -6.06269,-2.43696 -2.08033,-2.43696 -2.08033,-6.47875 0,-1.18876 0.35663,-2.61528 l 3.98235,-15.51334 q 0.35663,-1.30764 1.2482,-1.90202 0.95101,-0.65382 3.03135,-0.65382 3.09078,0 3.09078,1.72371 0,0.71325 -0.41607,2.25864 l -3.98235,15.92941 q -0.17832,0.71326 -0.17832,1.42652 0,1.2482 0.65382,2.02089 0.65382,0.7727 2.08034,0.7727 1.84258,0 3.98235,-1.06989 2.13977,-1.06988 3.62572,-2.61527 l 1.12933,-4.69561 q 1.12932,-4.75505 2.61527,-10.28279 0.65382,-2.37753 1.66427,-3.86348 1.06989,-1.54539 3.32853,-1.54539 3.15022,0 3.15022,1.90202 0,0.29719 -0.17831,0.77269 -0.11888,0.41607 -0.17832,0.71326 l -1.96145,8.14302 q -3.09078,12.95751 -4.04179,16.58323 -1.54539,5.94381 -3.50685,9.33178 -1.96146,3.38797 -4.93336,4.87392 -2.91247,1.48596 -7.4892,1.48596 -2.91247,0 -4.81449,-0.83214 -1.84258,-0.83213 -2.73415,-2.02089 -0.83214,-1.18876 -0.83214,-2.19921 0,-2.91247 3.20966,-2.91247 0.89157,0 1.42651,0.35663 0.59439,0.35663 1.18877,1.01045 0.89157,0.83213 1.60483,1.2482 0.77269,0.41607 2.08033,0.41607 1.01045,0 2.25865,-0.83214 1.2482,-0.83213 2.43696,-2.61527 1.18876,-1.78315 1.96146,-4.45786 z"
         style="fill:#e6f2ff;stroke-width:1.48595;fill-opacity:1"
         id="path23" />
    </g>
  </g>
</svg>
